<?xml version="1.0" encoding="UTF-8" standalone="no"?>
<!-- Created with Inkscape (http://www.inkscape.org/) -->

<svg
   xmlns:dc="http://purl.org/dc/elements/1.1/"
   xmlns:cc="http://creativecommons.org/ns#"
   xmlns:rdf="http://www.w3.org/1999/02/22-rdf-syntax-ns#"
   xmlns:svg="http://www.w3.org/2000/svg"
   xmlns="http://www.w3.org/2000/svg"
   xmlns:xlink="http://www.w3.org/1999/xlink"
   xmlns:sodipodi="http://sodipodi.sourceforge.net/DTD/sodipodi-0.dtd"
   xmlns:inkscape="http://www.inkscape.org/namespaces/inkscape"
   width="498.34192"
   height="428.88187"
   id="svg2432"
   sodipodi:version="0.32"
   inkscape:version="0.48.5 r10040"
   version="1.0"
   sodipodi:docname="noeud_tete_alouette.svg"
   inkscape:output_extension="org.inkscape.output.svg.inkscape">
  <sodipodi:namedview
     inkscape:document-units="mm"
     id="base"
     pagecolor="#ffffff"
     bordercolor="#666666"
     borderopacity="1.0"
     inkscape:pageopacity="0.0"
     inkscape:pageshadow="2"
     inkscape:zoom="0.74246212"
     inkscape:cx="119.77129"
     inkscape:cy="268.14263"
     inkscape:current-layer="layer1"
     showgrid="false"
     inkscape:window-width="1918"
     inkscape:window-height="1059"
     inkscape:window-x="0"
     inkscape:window-y="19"
     showguides="true"
     inkscape:guide-bbox="true"
     inkscape:window-maximized="0"
     units="mm"
     fit-margin-top="0"
     fit-margin-left="0"
     fit-margin-right="0"
     fit-margin-bottom="0" />
  <defs
     id="defs3">
    <linearGradient
       id="linearGradient6166">
      <stop
         id="stop6168"
         offset="0"
         style="stop-color:#282828;stop-opacity:1;" />
      <stop
         style="stop-color:#555555;stop-opacity:1;"
         offset="0.1"
         id="stop6188" />
      <stop
         id="stop6192"
         offset="0.2"
         style="stop-color:#555555;stop-opacity:1;" />
      <stop
         style="stop-color:#afafaf;stop-opacity:1;"
         offset="0.28999999"
         id="stop6172" />
      <stop
         id="stop6190"
         offset="0.5"
         style="stop-color:#555555;stop-opacity:1;" />
      <stop
         style="stop-color:#555555;stop-opacity:1;"
         offset="0.89999998"
         id="stop6194" />
      <stop
         id="stop6186"
         offset="1"
         style="stop-color:#282828;stop-opacity:1;" />
    </linearGradient>
    <linearGradient
       id="linearGradient5288">
      <stop
         style="stop-color:#555555;stop-opacity:1;"
         offset="0"
         id="stop5290" />
      <stop
         id="stop6072"
         offset="0.15000001"
         style="stop-color:#555555;stop-opacity:1;" />
      <stop
         id="stop6064"
         offset="0.2"
         style="stop-color:#afafaf;stop-opacity:1;" />
      <stop
         style="stop-color:#aaaaaa;stop-opacity:1;"
         offset="0.27000001"
         id="stop6076" />
      <stop
         style="stop-color:#282828;stop-opacity:1;"
         offset="0.30000001"
         id="stop6066" />
      <stop
         id="stop6078"
         offset="0.40000001"
         style="stop-color:#282828;stop-opacity:1;" />
      <stop
         style="stop-color:#aaaaaa;stop-opacity:1;"
         offset="0.43000001"
         id="stop6080" />
      <stop
         id="stop6070"
         offset="0.60000002"
         style="stop-color:#aaaaaa;stop-opacity:1;" />
      <stop
         style="stop-color:#555555;stop-opacity:1;"
         offset="0.69999999"
         id="stop6074" />
      <stop
         style="stop-color:#555555;stop-opacity:1;"
         offset="1"
         id="stop5292" />
    </linearGradient>
    <linearGradient
       inkscape:collect="always"
       xlink:href="#linearGradient5288"
       id="linearGradient5294"
       x1="76.771591"
       y1="-687.07751"
       x2="76.771591"
       y2="-630.50897"
       gradientUnits="userSpaceOnUse"
       gradientTransform="matrix(1,0,0,1.3219349,-3.777722,387.91409)" />
    <linearGradient
       inkscape:collect="always"
       xlink:href="#linearGradient6166"
       id="linearGradient6164"
       gradientUnits="userSpaceOnUse"
       gradientTransform="matrix(1,0,0,1.3402276,-3.777722,398.26517)"
       x1="76.771591"
       y1="-730.69879"
       x2="76.771591"
       y2="-566.44983" />
    <linearGradient
       inkscape:collect="always"
       xlink:href="#linearGradient6166-5"
       id="linearGradient6164-5"
       gradientUnits="userSpaceOnUse"
       gradientTransform="matrix(1,0,0,1.3402276,413.5282,1430.0971)"
       x1="76.771591"
       y1="-730.69879"
       x2="76.771591"
       y2="-566.44983" />
    <linearGradient
       id="linearGradient6166-5">
      <stop
         id="stop6168-7"
         offset="0"
         style="stop-color:#282828;stop-opacity:1;" />
      <stop
         style="stop-color:#555555;stop-opacity:1;"
         offset="0.1"
         id="stop6188-8" />
      <stop
         id="stop6192-0"
         offset="0.2"
         style="stop-color:#555555;stop-opacity:1;" />
      <stop
         style="stop-color:#afafaf;stop-opacity:1;"
         offset="0.28999999"
         id="stop6172-0" />
      <stop
         id="stop6190-7"
         offset="0.5"
         style="stop-color:#555555;stop-opacity:1;" />
      <stop
         style="stop-color:#555555;stop-opacity:1;"
         offset="0.89999998"
         id="stop6194-1" />
      <stop
         id="stop6186-6"
         offset="1"
         style="stop-color:#282828;stop-opacity:1;" />
    </linearGradient>
    <linearGradient
       inkscape:collect="always"
       xlink:href="#linearGradient6166-5"
       id="linearGradient6560"
       gradientUnits="userSpaceOnUse"
       gradientTransform="matrix(1,0,0,1.3402276,413.5282,1430.0971)"
       x1="76.771591"
       y1="-730.69879"
       x2="76.771591"
       y2="-566.44983" />
  </defs>
  <metadata
     id="metadata4">
    <rdf:RDF>
      <cc:Work
         rdf:about="">
        <dc:format>image/svg+xml</dc:format>
        <dc:type
           rdf:resource="http://purl.org/dc/dcmitype/StillImage" />
        <dc:title></dc:title>
      </cc:Work>
    </rdf:RDF>
  </metadata>
  <g
     style="display:inline"
     transform="translate(-251.90379,-415.51898)"
     id="layer1"
     inkscape:groupmode="layer"
     inkscape:label="noeuds">
    <g
       id="g6478"
       transform="translate(0,17.725863)">
      <path
         id="path5240"
         d="m 418.67028,447.13773 c -2.77402,4.65289 -4.93317,5.21821 -7.32581,4.20118 0,0 -26.19993,-25.80329 -26.19993,-25.80329 -2.18318,-1.41192 2.41607,-11.24809 6.52178,-14.78112 4.10569,-3.53302 20.74606,-7.36291 21.06465,-4.78313 0,0 4.38761,35.50385 4.38761,35.50385 1.69571,1.97057 4.32573,1.00961 1.5517,5.66251 0,0 0,0 0,0"
         style="fill:#efebc0;fill-opacity:1;fill-rule:evenodd;stroke:#ded6a3;stroke-width:2;stroke-miterlimit:4;stroke-opacity:1;stroke-dasharray:none;marker:none;visibility:visible;display:inline;overflow:visible"
         inkscape:connector-curvature="0" />
      <path
         id="path5238"
         d="m 413.19057,460.1375 c -1.4522,5.21876 -4.12615,7.5944 -6.67201,7.06655 0,0 -31.34242,-19.12508 -31.34242,-19.12508 -2.47591,-0.79341 -2.57427,-7.56288 -0.4553,-12.54796 2.11897,-4.98507 7.9559,-10.96721 10.13908,-9.5553 0,0 26.27953,25.84552 26.27953,25.84552 2.39264,1.01703 3.50332,3.09751 2.05112,8.31627 0,0 0,0 0,0"
         style="fill:#efebc0;fill-opacity:1;fill-rule:evenodd;stroke:#ded6a3;stroke-width:2;stroke-miterlimit:4;stroke-opacity:1;stroke-dasharray:none;marker:none;visibility:visible;display:inline;overflow:visible"
         inkscape:connector-curvature="0" />
      <path
         id="path5236"
         d="m 409.41909,477.03413 c -0.79751,5.35817 -3.31975,8.86934 -5.90039,8.5523 0,0 -33.36156,-15.63503 -33.36156,-15.63503 -2.56029,-0.45278 -3.75454,-5.75848 -2.65478,-11.06281 1.09976,-5.30431 5.03793,-11.10393 7.51384,-10.31052 0,0 31.39595,19.13919 31.39595,19.13919 2.54587,0.52784 3.80445,3.9587 3.00694,9.31687 0,0 0,0 0,0"
         style="fill:#efebc0;fill-opacity:1;fill-rule:evenodd;stroke:#ded6a3;stroke-width:2;stroke-miterlimit:4;stroke-opacity:1;stroke-dasharray:none;marker:none;visibility:visible;display:inline;overflow:visible"
         inkscape:connector-curvature="0" />
      <path
         id="path5234"
         d="m 407.33532,495.37694 c -0.40787,5.40186 -2.57837,8.74096 -5.17706,8.65644 0,0 -34.54619,-12.40341 -34.54619,-12.40341 -2.59268,-0.19576 -4.32166,-5.75085 -3.66111,-11.12763 0.66056,-5.37677 3.4714,-9.94287 6.0431,-9.56009 0,0 33.46073,15.1644 33.46073,15.1644 2.58064,0.31704 4.2884,3.86843 3.88053,9.27029 0,0 0,0 0,0"
         style="fill:#efebc0;fill-opacity:1;fill-rule:evenodd;stroke:#ded6a3;stroke-width:2;stroke-miterlimit:4;stroke-opacity:1;stroke-dasharray:none;marker:none;visibility:visible;display:inline;overflow:visible"
         inkscape:connector-curvature="0" />
      <path
         id="path5232"
         d="m 406.64012,514.03177 c -0.0658,5.41686 -1.98153,8.95722 -4.58064,9.0279 0,0 -35.30013,-10.25805 -35.30013,-10.25805 -2.59987,-0.0316 -4.64163,-4.87201 -4.46553,-10.2864 0.17611,-5.41437 2.68611,-10.55837 5.27878,-10.36261 0,0 34.56862,12.40462 34.56862,12.40462 2.59869,0.0845 4.56471,4.05768 4.4989,9.47454 0,0 0,0 0,0"
         style="fill:#efebc0;fill-opacity:1;fill-rule:evenodd;stroke:#ded6a3;stroke-width:2;stroke-miterlimit:4;stroke-opacity:1;stroke-dasharray:none;marker:none;visibility:visible;display:inline;overflow:visible"
         inkscape:connector-curvature="0" />
      <path
         id="path5230"
         d="m 407.14169,532.79806 c 0.2513,5.41144 -1.44267,9.0827 -4.03346,9.3021 0,0 -35.85101,-8.19626 -35.85101,-8.19626 -2.59727,0.12062 -4.93457,-4.56585 -5.08183,-9.98112 -0.14726,-5.41524 1.97772,-10.62866 4.57759,-10.59707 0,0 35.32075,10.2579 35.32075,10.2579 2.5991,-0.0707 4.81666,3.80302 5.06796,9.21445 0,0 0,0 0,0"
         style="fill:#efebc0;fill-opacity:1;fill-rule:evenodd;stroke:#ded6a3;stroke-width:2;stroke-miterlimit:4;stroke-opacity:1;stroke-dasharray:none;marker:none;visibility:visible;display:inline;overflow:visible"
         inkscape:connector-curvature="0" />
      <path
         id="path5228"
         d="m 408.74103,551.53505 c 0.5599,5.38825 -0.92768,9.14015 -3.50152,9.50851 0,0 -36.25472,-6.12692 -36.25472,-6.12692 -2.58615,0.26873 -5.18867,-4.27287 -5.64579,-9.67082 -0.45713,-5.39793 1.34527,-10.69773 3.94254,-10.81835 0,0 35.87091,8.19495 35.87091,8.19495 2.5908,-0.2194 5.02868,3.52437 5.58858,8.91263 0,0 0,0 0,0"
         style="fill:#efebc0;fill-opacity:1;fill-rule:evenodd;stroke:#ded6a3;stroke-width:2;stroke-miterlimit:4;stroke-opacity:1;stroke-dasharray:none;marker:none;visibility:visible;display:inline;overflow:visible"
         inkscape:connector-curvature="0" />
      <path
         id="path5226"
         d="m 411.40088,570.1237 c 0.87315,5.34643 -0.41158,9.13768 -2.95843,9.66099 0,0 -36.53292,-3.96693 -36.53292,-3.96693 -2.56608,0.41907 -5.42432,-3.97902 -6.1918,-9.34164 -0.76748,-5.36261 0.73508,-10.76942 3.32123,-11.03816 0,0 36.2748,6.12444 36.2748,6.12444 2.57385,-0.36836 5.21398,3.21487 6.08712,8.5613 0,0 0,0 0,0"
         style="fill:#efebc0;fill-opacity:1;fill-rule:evenodd;stroke:#ded6a3;stroke-width:2;stroke-miterlimit:4;stroke-opacity:1;stroke-dasharray:none;marker:none;visibility:visible;display:inline;overflow:visible"
         inkscape:connector-curvature="0" />
      <path
         id="path5224"
         d="m 415.13011,588.44419 c 1.20265,5.28206 0.12687,9.07316 -2.38006,9.7628 0,0 -36.68263,-1.63339 -36.68263,-1.63339 -2.53518,0.57723 -5.65556,-3.67027 -6.74588,-8.97666 -1.09032,-5.30638 0.10639,-10.84283 2.67246,-11.2619 0,0 36.55394,3.96306 36.55394,3.96306 2.54685,-0.52331 5.37952,2.86403 6.58217,8.14609 0,0 0,0 0,0"
         style="fill:#efebc0;fill-opacity:1;fill-rule:evenodd;stroke:#ded6a3;stroke-width:2;stroke-miterlimit:4;stroke-opacity:1;stroke-dasharray:none;marker:none;visibility:visible;display:inline;overflow:visible"
         inkscape:connector-curvature="0" />
      <path
         id="path5222"
         d="m 419.97639,606.35799 c 1.55954,5.18789 0.7083,8.9348 -1.74093,9.80741 0,0 -36.67732,0.96307 -36.67732,0.96307 -2.48998,0.74851 -5.89368,-3.33076 -7.33053,-8.55396 -1.43685,-5.22318 -0.57901,-10.91263 1.95617,-11.48986 0,0 36.70529,1.62769 36.70529,1.62769 2.50693,-0.68963 5.52779,2.45777 7.08732,7.64565 0,0 0,0 0,0"
         style="fill:#efebc0;fill-opacity:1;fill-rule:evenodd;stroke:#ded6a3;stroke-width:2;stroke-miterlimit:4;stroke-opacity:1;stroke-dasharray:none;marker:none;visibility:visible;display:inline;overflow:visible"
         inkscape:connector-curvature="0" />
      <path
         id="path5220"
         d="m 426.0232,623.68898 c 1.95473,5.05221 1.3541,8.69916 -1.01222,9.77646 0,0 -36.46136,3.9229 -36.46136,3.9229 -2.42486,0.9382 -6.1489,-2.94011 -7.96698,-8.04311 -1.81808,-5.10297 -1.36359,-10.96631 1.12638,-11.71482 0,0 36.70234,-0.97128 36.70234,-0.97128 2.44924,-0.87261 5.6571,1.97763 7.61184,7.02985 0,0 0,0 0,0"
         style="fill:#efebc0;fill-opacity:1;fill-rule:evenodd;stroke:#ded6a3;stroke-width:2;stroke-miterlimit:4;stroke-opacity:1;stroke-dasharray:none;marker:none;visibility:visible;display:inline;overflow:visible"
         inkscape:connector-curvature="0" />
      <path
         id="path5218"
         d="m 433.38683,640.19964 c 2.39838,4.85725 2.08531,8.3274 -0.16181,9.63519 0,0 -35.93713,7.35806 -35.93713,7.35806 -2.33129,1.15113 -6.43043,-2.46963 -8.675,-7.39987 -2.24457,-4.93023 -2.299,-10.97767 0.12585,-11.91586 0,0 36.48941,-3.93471 36.48941,-3.93471 2.36632,-1.0773 5.7603,1.39994 8.15868,6.25719 0,0 0,0 0,0"
         style="fill:#efebc0;fill-opacity:1;fill-rule:evenodd;stroke:#ded6a3;stroke-width:2;stroke-miterlimit:4;stroke-opacity:1;stroke-dasharray:none;marker:none;visibility:visible;display:inline;overflow:visible"
         inkscape:connector-curvature="0" />
      <path
         id="path5216"
         d="m 442.20765,655.56061 c 2.89746,4.57699 2.91644,7.76142 0.84033,9.32645 0,0 -34.94407,11.3806 -34.94407,11.3806 -2.19677,1.39067 -6.74292,-1.87697 -9.4677,-6.55886 -2.72477,-4.68186 -3.44756,-10.89483 -1.11627,-12.04596 0,0 35.96871,-7.37503 35.96871,-7.37503 2.24712,-1.30778 5.82153,0.69582 8.719,5.2728 0,0 0,0 0,0"
         style="fill:#efebc0;fill-opacity:1;fill-rule:evenodd;stroke:#ded6a3;stroke-width:2;stroke-miterlimit:4;stroke-opacity:1;stroke-dasharray:none;marker:none;visibility:visible;display:inline;overflow:visible"
         inkscape:connector-curvature="0" />
      <path
         id="path5214"
         d="m 452.13968,668.70021 c 3.59506,4.05239 4.129,7.3703 2.31896,9.23683 0,0 -32.65553,16.67955 -32.65553,16.67955 -1.94498,1.72549 -7.48127,-1.56857 -10.74201,-5.89415 -3.26074,-4.32557 -4.87362,-10.62128 -2.67685,-12.01194 0,0 34.97922,-11.40493 34.97922,-11.40493 2.0761,-1.56503 5.18115,-0.65774 8.77621,3.39464 0,0 0,0 0,0"
         style="fill:#efebc0;fill-opacity:1;fill-rule:evenodd;stroke:#ded6a3;stroke-width:2;stroke-miterlimit:4;stroke-opacity:1;stroke-dasharray:none;marker:none;visibility:visible;display:inline;overflow:visible"
         inkscape:connector-curvature="0" />
      <path
         id="path5198"
         d="m 552.67463,665.52955 c 2.89707,-4.57748 6.14691,-6.32121 8.41888,-5.05722 0,0 24.65526,27.37366 24.65526,27.37366 2.16287,1.44299 0.55104,7.69737 -2.79573,11.95706 -3.34676,4.25967 -9.16159,7.42547 -11.0605,5.64946 0,0 -19.84733,-30.88137 -19.84733,-30.88137 -2.04448,-1.60631 -2.26764,-4.46411 0.62942,-9.04159 0,0 0,0 0,0"
         style="fill:#efebc0;fill-opacity:1;fill-rule:evenodd;stroke:#ded6a3;stroke-width:2;stroke-miterlimit:4;stroke-opacity:1;stroke-dasharray:none;marker:none;visibility:visible;display:inline;overflow:visible"
         inkscape:connector-curvature="0" />
      <path
         id="path5196"
         d="m 560.79494,650.59012 c 2.24306,-4.93081 5.46997,-7.44282 7.87416,-6.45301 0,0 28.1277,23.64954 28.1277,23.64954 2.36659,1.07658 1.68141,7.53877 -0.95211,12.27244 -2.63351,4.73365 -7.38282,8.38203 -9.57982,6.99156 0,0 -24.91656,-27.03632 -24.91656,-27.03632 -2.27198,-1.26398 -2.79643,-4.4934 -0.55337,-9.42421 0,0 0,0 0,0"
         style="fill:#efebc0;fill-opacity:1;fill-rule:evenodd;stroke:#ded6a3;stroke-width:2;stroke-miterlimit:4;stroke-opacity:1;stroke-dasharray:none;marker:none;visibility:visible;display:inline;overflow:visible"
         inkscape:connector-curvature="0" />
      <path
         id="path5194"
         d="m 567.33903,634.04656 c 1.72811,-5.1341 4.74024,-8.08098 7.22813,-7.32567 0,0 30.34162,20.75809 30.34162,20.75809 2.46416,0.82942 2.62577,7.04048 0.56348,12.04963 -2.06229,5.00913 -6.09185,8.85755 -8.45844,7.78097 0,0 -28.14519,-23.65711 -28.14519,-23.65711 -2.40419,-0.98982 -3.25771,-4.47181 -1.5296,-9.60591 0,0 0,0 0,0"
         style="fill:#efebc0;fill-opacity:1;fill-rule:evenodd;stroke:#ded6a3;stroke-width:2;stroke-miterlimit:4;stroke-opacity:1;stroke-dasharray:none;marker:none;visibility:visible;display:inline;overflow:visible"
         inkscape:connector-curvature="0" />
      <path
         id="path5192"
         d="m 572.40057,616.58029 c 1.28739,-5.262 4.09542,-8.53835 6.63576,-7.98435 0,0 31.93653,18.18884 31.93653,18.18884 2.52555,0.6179 3.27532,6.55321 1.70162,11.73675 -1.5737,5.18352 -5.13434,9.29014 -7.5985,8.46071 0,0 -30.49611,-20.28683 -30.49611,-20.28683 -2.5082,-0.6849 -3.46668,-4.85311 -2.1793,-10.11512 0,0 0,0 0,0"
         style="fill:#efebc0;fill-opacity:1;fill-rule:evenodd;stroke:#ded6a3;stroke-width:2;stroke-miterlimit:4;stroke-opacity:1;stroke-dasharray:none;marker:none;visibility:visible;display:inline;overflow:visible"
         inkscape:connector-curvature="0" />
      <path
         id="path5190"
         d="m 576.1754,598.50036 c 0.9052,-5.34107 3.51864,-8.87192 6.09104,-8.49366 0,0 33.11613,15.89462 33.11613,15.89462 2.5635,0.43446 3.73719,6.11822 2.58291,11.41103 -1.15427,5.29279 -4.34251,9.58122 -6.86806,8.96332 0,0 -31.94941,-18.19182 -31.94941,-18.19182 -2.54034,-0.554 -3.87781,-4.24241 -2.97261,-9.58349 0,0 0,0 0,0"
         style="fill:#efebc0;fill-opacity:1;fill-rule:evenodd;stroke:#ded6a3;stroke-width:2;stroke-miterlimit:4;stroke-opacity:1;stroke-dasharray:none;marker:none;visibility:visible;display:inline;overflow:visible"
         inkscape:connector-curvature="0" />
      <path
         id="path5188"
         d="m 578.80922,580.01816 c 0.5661,-5.3876 2.99033,-9.11837 5.581,-8.89751 0,0 34.01545,13.80772 34.01545,13.80772 2.58584,0.27171 4.08491,5.74137 3.29681,11.10099 -0.7881,5.35959 -3.66883,9.78966 -6.23233,9.3552 0,0 -33.12746,-15.89641 -33.12746,-15.89641 -2.5724,-0.37826 -4.09957,-4.08239 -3.53347,-9.46999 0,0 0,0 0,0"
         style="fill:#efebc0;fill-opacity:1;fill-rule:evenodd;stroke:#ded6a3;stroke-width:2;stroke-miterlimit:4;stroke-opacity:1;stroke-dasharray:none;marker:none;visibility:visible;display:inline;overflow:visible"
         inkscape:connector-curvature="0" />
      <path
         id="path5186"
         d="m 580.42267,560.87118 c 0.35697,-5.40549 2.4689,-8.88511 5.06789,-8.80983 0,0 34.68913,12.18248 34.68913,12.18248 2.59442,0.17133 4.40052,5.08844 3.94034,10.48613 -0.46016,5.39766 -3.07375,9.94886 -5.65958,9.67715 0,0 -34.0257,-13.80869 -34.0257,-13.80869 -2.59068,-0.22087 -4.36905,-4.32174 -4.01208,-9.72724 0,0 0,0 0,0"
         style="fill:#efebc0;fill-opacity:1;fill-rule:evenodd;stroke:#ded6a3;stroke-width:2;stroke-miterlimit:4;stroke-opacity:1;stroke-dasharray:none;marker:none;visibility:visible;display:inline;overflow:visible"
         inkscape:connector-curvature="0" />
      <path
         id="path5184"
         d="m 580.98399,542.02783 c 0.059,-5.41696 2.02193,-9.03259 4.6212,-9.09726 0,0 35.26122,10.27706 35.26122,10.27706 2.59992,0.0283 4.65074,4.81502 4.49389,10.23003 -0.15684,5.41498 -2.55165,10.4545 -5.14607,10.28317 0,0 -34.7085,-12.1834 -34.7085,-12.1834 -2.59898,-0.0753 -4.58072,-4.09264 -4.52174,-9.5096 0,0 0,0 0,0"
         style="fill:#efebc0;fill-opacity:1;fill-rule:evenodd;stroke:#ded6a3;stroke-width:2;stroke-miterlimit:4;stroke-opacity:1;stroke-dasharray:none;marker:none;visibility:visible;display:inline;overflow:visible"
         inkscape:connector-curvature="0" />
      <path
         id="path5182"
         d="m 580.5811,523.14945 c -0.23159,-5.41232 1.55276,-9.11807 4.14471,-9.32344 0,0 35.7436,8.3629 35.7436,8.3629 2.59769,-0.11115 4.88711,4.55515 5.02185,9.97075 0.13474,5.41558 -2.01922,10.55218 -4.61914,10.52387 0,0 -35.27996,-10.27693 -35.27996,-10.27693 -2.59927,0.0647 -4.77947,-3.84482 -5.01106,-9.25715 0,0 0,0 0,0"
         style="fill:#efebc0;fill-opacity:1;fill-rule:evenodd;stroke:#ded6a3;stroke-width:2;stroke-miterlimit:4;stroke-opacity:1;stroke-dasharray:none;marker:none;visibility:visible;display:inline;overflow:visible"
         inkscape:connector-curvature="0" />
      <path
         id="path5180"
         d="m 579.17971,504.34846 c -0.52852,-5.39143 1.03294,-9.13358 3.60876,-9.48783 0,0 36.16651,6.33778 36.16651,6.33778 2.58767,-0.25367 5.12866,4.297 5.55655,9.69735 0.42789,5.40033 -1.46683,10.65834 -4.06453,10.7695 0,0 -35.76259,-8.36174 -35.76259,-8.36174 -2.59195,0.20537 -4.97618,-3.56364 -5.5047,-8.95506 0,0 0,0 0,0"
         style="fill:#efebc0;fill-opacity:1;fill-rule:evenodd;stroke:#ded6a3;stroke-width:2;stroke-miterlimit:4;stroke-opacity:1;stroke-dasharray:none;marker:none;visibility:visible;display:inline;overflow:visible"
         inkscape:connector-curvature="0" />
      <path
         id="path5178"
         d="m 576.68519,485.76582 c -0.84862,-5.35037 0.4174,-9.0517 2.96468,-9.57288 0,0 36.55229,4.05994 36.55229,4.05994 2.56796,-0.4073 5.39911,4.02497 6.13721,9.39171 0.73809,5.36672 -0.84785,10.77852 -3.43552,11.03219 0,0 -36.1868,-6.3354 -36.1868,-6.3354 -2.57582,0.35426 -5.18323,-3.22519 -6.03186,-8.57556 0,0 0,0 0,0"
         style="fill:#efebc0;fill-opacity:1;fill-rule:evenodd;stroke:#ded6a3;stroke-width:2;stroke-miterlimit:4;stroke-opacity:1;stroke-dasharray:none;marker:none;visibility:visible;display:inline;overflow:visible"
         inkscape:connector-curvature="0" />
      <path
         id="path5176"
         d="m 572.98948,468.1957 c -1.35298,-5.24551 -0.31294,-8.77081 2.16154,-9.56887 0,0 36.65263,0.32746 36.65263,0.32746 2.51763,-0.64937 5.88752,4.15173 6.97342,9.459 1.08589,5.30725 -0.089,10.91463 -2.65701,11.32193 0,0 -36.57526,-4.05577 -36.57526,-4.05577 -2.54727,0.52118 -5.20235,-2.23825 -6.55532,-7.48375 0,0 0,0 0,0"
         style="fill:#efebc0;fill-opacity:1;fill-rule:evenodd;stroke:#ded6a3;stroke-width:2;stroke-miterlimit:4;stroke-opacity:1;stroke-dasharray:none;marker:none;visibility:visible;display:inline;overflow:visible"
         inkscape:connector-curvature="0" />
      <path
         id="path5174"
         d="m 567.77469,451.89353 c -2.03328,-5.02089 -1.38065,-7.95454 0.92842,-9.1492 0,0 36.32534,-5.13296 36.32534,-5.13296 2.40983,-0.97589 6.49366,3.82583 8.15644,8.98143 1.66278,5.15558 1.00549,11.20461 -1.51214,11.85398 0,0 -36.68261,-0.31877 -36.68261,-0.31877 -2.47448,0.79807 -5.18216,-1.21359 -7.21545,-6.23448 0,0 0,0 0,0"
         style="fill:#efebc0;fill-opacity:1;fill-rule:evenodd;stroke:#ded6a3;stroke-width:2;stroke-miterlimit:4;stroke-opacity:1;stroke-dasharray:none;marker:none;visibility:visible;display:inline;overflow:visible"
         inkscape:connector-curvature="0" />
      <rect
         y="449.68823"
         x="251.90379"
         height="222.02879"
         width="498.34192"
         id="rect5286"
         style="fill:url(#linearGradient6560);fill-opacity:1;stroke:none;display:inline" />
      <path
         id="path5134"
         d="m 541.59184,772.05132 c -0.0287,5.41726 -2.11277,9.57777 -4.71285,9.5884 0,0 -35.17599,-10.54516 -35.17599,-10.54516 -2.60007,-0.0138 -4.67017,-4.38602 -4.64149,-9.80328 0.0287,-5.41725 2.14497,-9.76735 4.74504,-9.75358 0,0 35.14379,10.71034 35.14379,10.71034 2.60007,0.0138 4.67018,4.38602 4.6415,9.80328 0,0 0,0 0,0"
         style="fill:#efebc0;fill-opacity:1;fill-rule:evenodd;stroke:#ded6a3;stroke-width:2;stroke-miterlimit:4;stroke-opacity:1;stroke-dasharray:none;marker:none;visibility:visible;display:inline;overflow:visible"
         inkscape:connector-curvature="0" />
      <path
         id="path5132"
         d="m 541.61442,791.92311 c 0.0222,5.41727 -2.05321,9.78701 -4.65328,9.79764 0,0 -35.24263,-10.38 -35.24263,-10.38 -2.60007,0.0106 -4.71111,-4.34198 -4.73327,-9.75925 -0.0222,-5.41725 2.11492,-9.97658 4.71499,-9.96281 0,0 35.18091,10.54517 35.18091,10.54517 2.60007,-0.0106 4.71112,4.34198 4.73328,9.75925 0,0 0,0 0,0"
         style="fill:#efebc0;fill-opacity:1;fill-rule:evenodd;stroke:#ded6a3;stroke-width:2;stroke-miterlimit:4;stroke-opacity:1;stroke-dasharray:none;marker:none;visibility:visible;display:inline;overflow:visible"
         inkscape:connector-curvature="0" />
      <path
         id="path5130"
         d="m 541.69656,812.00414 c 0.0222,5.41727 -2.05321,9.78701 -4.65328,9.79764 0,0 -35.24263,-10.38 -35.24263,-10.38 -2.60007,0.0106 -4.71111,-4.34198 -4.73327,-9.75925 -0.0222,-5.41725 2.0532,-9.78701 4.65327,-9.79765 0,0 35.24263,10.38001 35.24263,10.38001 2.60007,-0.0106 4.71112,4.34197 4.73328,9.75925 0,0 0,0 0,0"
         style="fill:#efebc0;fill-opacity:1;fill-rule:evenodd;stroke:#ded6a3;stroke-width:2;stroke-miterlimit:4;stroke-opacity:1;stroke-dasharray:none;marker:none;visibility:visible;display:inline;overflow:visible"
         inkscape:connector-curvature="0" />
      <path
         id="path9176"
         d="m 541.82948,831.87775 c 0.0725,5.41684 -1.96226,9.80567 -4.56213,9.84044 0,0 -35.33753,-10.05238 -35.33753,-10.05238 -2.59987,0.0348 -4.75814,-4.50498 -4.7803,-9.92225 -0.0222,-5.41725 2.0532,-9.78701 4.65327,-9.79765 0,0 35.24263,10.38 35.24263,10.38 2.60007,-0.0106 4.71161,4.135 4.78406,9.55184 0,0 0,0 0,0"
         style="fill:#efebc0;fill-opacity:1;fill-rule:evenodd;stroke:#ded6a3;stroke-width:2;stroke-miterlimit:4;stroke-opacity:1;stroke-dasharray:none;marker:none;visibility:visible;display:inline;overflow:visible"
         inkscape:connector-curvature="0" />
      <path
         id="path5146"
         d="m 543.81318,652.26505 c -0.19254,5.41389 -2.43945,9.69794 -5.03789,9.60553 0,0 -34.80354,-11.76846 -34.80354,-11.76846 -2.59845,-0.0924 -4.53533,-4.52526 -4.34279,-9.93914 0.19253,-5.41387 2.45573,-9.92134 5.053,-9.80014 0,0 34.78841,11.96307 34.78841,11.96307 2.59845,0.0924 4.53535,4.52526 4.34281,9.93914 0,0 0,0 0,0"
         style="fill:#efebc0;fill-opacity:1;fill-rule:evenodd;stroke:#ded6a3;stroke-width:2;stroke-miterlimit:4;stroke-opacity:1;stroke-dasharray:none;marker:none;visibility:visible;display:inline;overflow:visible"
         inkscape:connector-curvature="0" />
      <path
         id="path5144"
         d="m 543.09946,672.33353 c -0.19253,5.41388 -2.31334,9.45506 -4.91273,9.39437 0,0 -34.92869,-11.5573 -34.92869,-11.5573 -2.59845,-0.0924 -4.53534,-4.52526 -4.3428,-9.93915 0.19254,-5.41386 2.43944,-9.69794 5.03788,-9.60553 0,0 34.80354,11.76846 34.80354,11.76846 2.59845,0.0924 4.53534,4.52526 4.3428,9.93915 0,0 0,0 0,0"
         style="fill:#efebc0;fill-opacity:1;fill-rule:evenodd;stroke:#ded6a3;stroke-width:2;stroke-miterlimit:4;stroke-opacity:1;stroke-dasharray:none;marker:none;visibility:visible;display:inline;overflow:visible"
         inkscape:connector-curvature="0" />
      <path
         id="path5142"
         d="m 542.63828,692.13732 c -0.12646,5.41585 -2.32092,9.72702 -4.92031,9.66632 0,0 -34.94465,-11.3429 -34.94465,-11.3429 -2.59939,-0.0607 -4.59024,-4.46958 -4.46378,-9.88543 0.12646,-5.41583 2.33142,-9.97332 4.92987,-9.88091 0,0 34.93509,11.55749 34.93509,11.55749 2.59938,0.0607 4.59024,4.46959 4.46378,9.88543 0,0 0,0 0,0"
         style="fill:#efebc0;fill-opacity:1;fill-rule:evenodd;stroke:#ded6a3;stroke-width:2;stroke-miterlimit:4;stroke-opacity:1;stroke-dasharray:none;marker:none;visibility:visible;display:inline;overflow:visible"
         inkscape:connector-curvature="0" />
      <path
         id="path5140"
         d="m 542.18966,711.99304 c -0.0729,5.41684 -2.22467,9.74949 -4.82453,9.7145 0,0 -35.05513,-10.99694 -35.05513,-10.99694 -2.59987,-0.035 -4.59568,-4.6437 -4.46922,-10.05954 0.12646,-5.41583 2.32091,-9.72702 4.9203,-9.66632 0,0 34.94466,11.3429 34.94466,11.3429 2.59938,0.0607 4.55683,4.24856 4.48392,9.6654 0,0 0,0 0,0"
         style="fill:#efebc0;fill-opacity:1;fill-rule:evenodd;stroke:#ded6a3;stroke-width:2;stroke-miterlimit:4;stroke-opacity:1;stroke-dasharray:none;marker:none;visibility:visible;display:inline;overflow:visible"
         inkscape:connector-curvature="0" />
      <path
         id="path5138"
         d="m 541.91937,732.07247 c -0.0729,5.41684 -2.22467,9.7495 -4.82453,9.7145 0,0 -35.05513,-10.99694 -35.05513,-10.99694 -2.59987,-0.035 -4.6342,-4.424 -4.56128,-9.84084 0.0729,-5.41682 2.22465,-9.7495 4.82451,-9.7145 0,0 35.05513,10.99694 35.05513,10.99694 2.59987,0.035 4.63421,4.424 4.5613,9.84084 0,0 0,0 0,0"
         style="fill:#efebc0;fill-opacity:1;fill-rule:evenodd;stroke:#ded6a3;stroke-width:2;stroke-miterlimit:4;stroke-opacity:1;stroke-dasharray:none;marker:none;visibility:visible;display:inline;overflow:visible"
         inkscape:connector-curvature="0" />
      <path
         id="path5136"
         d="m 541.69816,751.97033 c -0.0287,5.41726 -2.14498,9.76734 -4.74504,9.75358 0,0 -35.1438,-10.71035 -35.1438,-10.71035 -2.60006,-0.0138 -4.6741,-4.5681 -4.60118,-9.98494 0.0729,-5.41682 2.22465,-9.74949 4.82451,-9.7145 0,0 35.05513,10.99694 35.05513,10.99694 2.59987,0.035 4.63907,4.242 4.61038,9.65927 0,0 0,0 0,0"
         style="fill:#efebc0;fill-opacity:1;fill-rule:evenodd;stroke:#ded6a3;stroke-width:2;stroke-miterlimit:4;stroke-opacity:1;stroke-dasharray:none;marker:none;visibility:visible;display:inline;overflow:visible"
         inkscape:connector-curvature="0" />
      <path
         id="path5284"
         d="m 460.98018,823.23232 c -0.0182,-5.41731 2.06035,-9.78555 4.66044,-9.79429 0,0 35.2352,10.40574 35.2352,10.40574 2.60009,-0.009 4.70796,4.34543 4.72617,9.76274 0.0182,5.41729 -2.06034,9.78555 -4.66043,9.79429 0,0 -35.2352,-10.40574 -35.2352,-10.40574 -2.60009,0.009 -4.70797,-4.34543 -4.72618,-9.76274 0,0 0,0 0,0"
         style="fill:#efebc0;fill-opacity:1;fill-rule:evenodd;stroke:#ded6a3;stroke-width:2;stroke-miterlimit:4;stroke-opacity:1;stroke-dasharray:none;marker:none;visibility:visible;display:inline;overflow:visible"
         inkscape:connector-curvature="0" />
      <path
         id="path5282"
         d="m 460.91107,803.3223 c -0.0598,-5.417 1.98517,-9.80107 4.58511,-9.82977 0,0 35.31214,10.27007 35.31214,10.27007 2.60009,-0.009 4.70796,4.34543 4.72617,9.76274 0.0182,5.41729 -2.06034,9.78555 -4.66043,9.79429 0,0 -35.2352,-10.40574 -35.2352,-10.40574 -2.60009,0.009 -4.668,-4.17458 -4.72779,-9.59159 0,0 0,0 0,0"
         style="fill:#efebc0;fill-opacity:1;fill-rule:evenodd;stroke:#ded6a3;stroke-width:2;stroke-miterlimit:4;stroke-opacity:1;stroke-dasharray:none;marker:none;visibility:visible;display:inline;overflow:visible"
         inkscape:connector-curvature="0" />
      <path
         id="path5280"
         d="m 460.68942,783.24226 c -0.0598,-5.417 1.98517,-9.80106 4.58512,-9.82976 0,0 35.314,10.13494 35.314,10.13494 2.59994,-0.0287 4.74118,4.30916 4.80097,9.72617 0.0598,5.41698 -1.98517,9.80107 -4.58511,9.82976 0,0 -35.314,-10.13494 -35.314,-10.13494 -2.59994,0.0287 -4.74119,-4.30916 -4.80098,-9.72617 0,0 0,0 0,0"
         style="fill:#efebc0;fill-opacity:1;fill-rule:evenodd;stroke:#ded6a3;stroke-width:2;stroke-miterlimit:4;stroke-opacity:1;stroke-dasharray:none;marker:none;visibility:visible;display:inline;overflow:visible"
         inkscape:connector-curvature="0" />
      <path
         id="path5278"
         d="m 460.46175,763.36916 c -0.11005,-5.41621 1.89416,-9.81905 4.49372,-9.87187 0,0 35.40646,9.8069 35.40646,9.8069 2.59956,-0.0528 4.74614,4.47238 4.80593,9.88938 0.0598,5.41698 -1.98516,9.80107 -4.58511,9.82977 0,0 -35.314,-10.13495 -35.314,-10.13495 -2.59994,0.0287 -4.69696,-4.10302 -4.807,-9.51923 0,0 0,0 0,0"
         style="fill:#efebc0;fill-opacity:1;fill-rule:evenodd;stroke:#ded6a3;stroke-width:2;stroke-miterlimit:4;stroke-opacity:1;stroke-dasharray:none;marker:none;visibility:visible;display:inline;overflow:visible"
         inkscape:connector-curvature="0" />
      <path
         id="path5276"
         d="m 460.05383,743.29207 c -0.11004,-5.41621 1.89417,-9.81905 4.49373,-9.87187 0,0 35.40645,9.8069 35.40645,9.8069 2.59956,-0.0528 4.78094,4.26499 4.89099,9.6812 0.11004,5.41618 -1.89416,9.81905 -4.49372,9.87186 0,0 -35.40645,-9.8069 -35.40645,-9.8069 -2.59957,0.0528 -4.78095,-4.26498 -4.891,-9.68119 0,0 0,0 0,0"
         style="fill:#efebc0;fill-opacity:1;fill-rule:evenodd;stroke:#ded6a3;stroke-width:2;stroke-miterlimit:4;stroke-opacity:1;stroke-dasharray:none;marker:none;visibility:visible;display:inline;overflow:visible"
         inkscape:connector-curvature="0" />
      <path
         id="path5274"
         d="m 459.62564,723.46497 c -0.17062,-5.41462 1.7842,-9.8396 4.38301,-9.92149 0,0 35.51387,9.4102 35.51387,9.4102 2.5988,-0.0819 4.80452,4.46132 4.91456,9.87753 0.11005,5.41618 -1.89415,9.81905 -4.49371,9.87186 0,0 -35.40646,-9.8069 -35.40646,-9.8069 -2.59956,0.0528 -4.74065,-4.01657 -4.91127,-9.4312 0,0 0,0 0,0"
         style="fill:#efebc0;fill-opacity:1;fill-rule:evenodd;stroke:#ded6a3;stroke-width:2;stroke-miterlimit:4;stroke-opacity:1;stroke-dasharray:none;marker:none;visibility:visible;display:inline;overflow:visible"
         inkscape:connector-curvature="0" />
      <path
         id="path5272"
         d="m 458.99317,703.39374 c -0.17063,-5.41463 1.7842,-9.8396 4.38301,-9.92149 0,0 35.51386,9.4102 35.51386,9.4102 2.59881,-0.0819 4.82835,4.21123 4.99897,9.62586 0.17062,5.41461 -1.7842,9.8396 -4.383,9.9215 0,0 -35.51387,-9.41021 -35.51387,-9.41021 -2.5988,0.0819 -4.82835,-4.21123 -4.99897,-9.62586 0,0 0,0 0,0"
         style="fill:#efebc0;fill-opacity:1;fill-rule:evenodd;stroke:#ded6a3;stroke-width:2;stroke-miterlimit:4;stroke-opacity:1;stroke-dasharray:none;marker:none;visibility:visible;display:inline;overflow:visible"
         inkscape:connector-curvature="0" />
      <path
         id="path5270"
         d="m 458.30693,683.62629 c -0.24383,-5.41181 1.65097,-9.8628 4.24843,-9.97983 0,0 35.63777,8.92905 35.63777,8.92905 2.59745,-0.11703 4.89278,4.44694 5.06341,9.86157 0.17062,5.41461 -1.7842,9.8396 -4.383,9.9215 0,0 -35.51387,-9.41021 -35.51387,-9.41021 -2.59881,0.0819 -4.80891,-3.91027 -5.05274,-9.32208 0,0 0,0 0,0"
         style="fill:#efebc0;fill-opacity:1;fill-rule:evenodd;stroke:#ded6a3;stroke-width:2;stroke-miterlimit:4;stroke-opacity:1;stroke-dasharray:none;marker:none;visibility:visible;display:inline;overflow:visible"
         inkscape:connector-curvature="0" />
      <path
         id="path5268"
         d="m 457.40309,663.56551 c -0.24383,-5.41181 1.65097,-9.8628 4.24842,-9.97983 0,0 35.63778,8.92905 35.63778,8.92905 2.59745,-0.11703 4.88483,4.14553 5.12866,9.55734 0.24383,5.41179 -1.65096,9.86281 -4.24841,9.97983 0,0 -35.63778,-8.92904 -35.63778,-8.92904 -2.59745,0.11703 -4.88484,-4.14554 -5.12867,-9.55735 0,0 0,0 0,0"
         style="fill:#efebc0;fill-opacity:1;fill-rule:evenodd;stroke:#ded6a3;stroke-width:2;stroke-miterlimit:4;stroke-opacity:1;stroke-dasharray:none;marker:none;visibility:visible;display:inline;overflow:visible"
         inkscape:connector-curvature="0" />
      <path
         id="path5266"
         d="m 456.37737,643.87873 c -0.33287,-5.40704 1.48841,-9.88859 4.08357,-10.04836 0,0 35.77975,8.34122 35.77975,8.34122 2.59516,-0.15977 5.02959,4.42789 5.27342,9.8397 0.24383,5.41179 -1.65096,9.8628 -4.24842,9.97983 0,0 -35.63777,-8.92905 -35.63777,-8.92905 -2.59745,0.11703 -4.91768,-3.7763 -5.25055,-9.18334 0,0 0,0 0,0"
         style="fill:#efebc0;fill-opacity:1;fill-rule:evenodd;stroke:#ded6a3;stroke-width:2;stroke-miterlimit:4;stroke-opacity:1;stroke-dasharray:none;marker:none;visibility:visible;display:inline;overflow:visible"
         inkscape:connector-curvature="0" />
      <path
         id="path5264"
         d="m 455.14346,623.83564 c -0.33287,-5.40704 1.45452,-9.58855 4.04708,-9.78646 0,0 35.81624,8.07931 35.81624,8.07931 2.59516,-0.15977 4.95238,4.06455 5.28526,9.47159 0.33287,5.40702 -1.4884,9.8886 -4.08356,10.04836 0,0 -35.77975,-8.34121 -35.77975,-8.34121 -2.59516,0.15976 -4.9524,-4.06456 -5.28527,-9.47159 0,0 0,0 0,0"
         style="fill:#efebc0;fill-opacity:1;fill-rule:evenodd;stroke:#ded6a3;stroke-width:2;stroke-miterlimit:4;stroke-opacity:1;stroke-dasharray:none;marker:none;visibility:visible;display:inline;overflow:visible"
         inkscape:connector-curvature="0" />
      <path
         id="path5262"
         d="m 453.72662,604.13363 c -0.41235,-5.40161 1.2821,-9.6763 3.87226,-9.90339 0,0 35.962,7.61022 35.962,7.61022 2.59256,-0.19791 5.01167,3.99133 5.42402,9.39294 0.41234,5.40159 -1.41517,10.21218 -4.01033,10.37195 0,0 -35.82393,-8.07879 -35.82393,-8.07879 -2.59256,0.19791 -5.01167,-3.99133 -5.42402,-9.39293 0,0 0,0 0,0"
         style="fill:#efebc0;fill-opacity:1;fill-rule:evenodd;stroke:#ded6a3;stroke-width:2;stroke-miterlimit:4;stroke-opacity:1;stroke-dasharray:none;marker:none;visibility:visible;display:inline;overflow:visible"
         inkscape:connector-curvature="0" />
      <path
         id="path5260"
         d="m 452.0352,584.65802 c -0.54114,-5.39021 1.10598,-9.9387 3.69307,-10.19842 0,0 36.07502,6.95534 36.07502,6.95534 2.58708,-0.25972 5.08253,4.15501 5.55567,9.55162 0.47314,5.3966 -1.24542,10.15338 -3.83797,10.35129 0,0 -35.96789,-7.60974 -35.96789,-7.60974 -2.59016,0.22709 -4.97677,-3.65987 -5.5179,-9.05009 0,0 0,0 0,0"
         style="fill:#efebc0;fill-opacity:1;fill-rule:evenodd;stroke:#ded6a3;stroke-width:2;stroke-miterlimit:4;stroke-opacity:1;stroke-dasharray:none;marker:none;visibility:visible;display:inline;overflow:visible"
         inkscape:connector-curvature="0" />
      <path
         id="path5258"
         d="m 449.98413,565.00008 c -0.6175,-5.38199 0.99976,-9.63124 3.5778,-9.96901 0,0 36.14023,6.16239 36.14023,6.16239 2.58314,-0.29637 5.20071,4.11133 5.74184,9.50155 0.54112,5.39019 -1.10598,9.9387 -3.69307,10.19842 0,0 -36.07502,-6.95534 -36.07502,-6.95534 -2.58708,0.25972 -5.07427,-3.55602 -5.69178,-8.93801 0,0 0,0 0,0"
         style="fill:#efebc0;fill-opacity:1;fill-rule:evenodd;stroke:#ded6a3;stroke-width:2;stroke-miterlimit:4;stroke-opacity:1;stroke-dasharray:none;marker:none;visibility:visible;display:inline;overflow:visible"
         inkscape:connector-curvature="0" />
      <path
         id="path5256"
         d="m 447.57005,545.42545 c -0.70373,-5.37138 0.7499,-9.58746 3.32134,-9.97221 0,0 36.33043,5.52914 36.33043,5.52914 2.57805,-0.33777 5.22005,3.71455 5.92379,9.08593 0.70373,5.37136 -0.92005,10.30806 -3.50319,10.60444 0,0 -36.14857,-6.16137 -36.14857,-6.16137 -2.57805,0.33776 -5.22007,-3.71455 -5.9238,-9.08593 0,0 0,0 0,0"
         style="fill:#efebc0;fill-opacity:1;fill-rule:evenodd;stroke:#ded6a3;stroke-width:2;stroke-miterlimit:4;stroke-opacity:1;stroke-dasharray:none;marker:none;visibility:visible;display:inline;overflow:visible"
         inkscape:connector-curvature="0" />
      <path
         id="path5254"
         d="m 444.75056,526.42683 c -0.91353,-5.33966 0.41426,-9.99133 2.97708,-10.42979 0,0 36.46994,4.43741 36.46994,4.43741 2.56282,-0.43845 5.37853,3.97681 6.18017,9.33443 0.80164,5.3576 -0.64597,10.35604 -3.22402,10.6938 0,0 -36.3399,-5.5278 -36.3399,-5.5278 -2.57144,0.38475 -5.14974,-3.1684 -6.06327,-8.50805 0,0 0,0 0,0"
         style="fill:#efebc0;fill-opacity:1;fill-rule:evenodd;stroke:#ded6a3;stroke-width:2;stroke-miterlimit:4;stroke-opacity:1;stroke-dasharray:none;marker:none;visibility:visible;display:inline;overflow:visible"
         inkscape:connector-curvature="0" />
      <path
         id="path5252"
         d="m 441.24184,507.2037 c -1.04226,-5.31598 0.11017,-9.40376 2.64651,-9.97565 0,0 36.64393,3.032 36.64393,3.032 2.55146,-0.50025 5.64045,3.88834 6.55398,9.228 0.91352,5.33963 -0.41425,9.99133 -2.97707,10.42978 0,0 -36.46994,-4.43741 -36.46994,-4.43741 -2.56282,0.43845 -5.35514,-2.96073 -6.39741,-8.27672 0,0 0,0 0,0"
         style="fill:#efebc0;fill-opacity:1;fill-rule:evenodd;stroke:#ded6a3;stroke-width:2;stroke-miterlimit:4;stroke-opacity:1;stroke-dasharray:none;marker:none;visibility:visible;display:inline;overflow:visible"
         inkscape:connector-curvature="0" />
      <path
         id="path5250"
         d="m 437.04936,488.76554 c -1.31955,-5.25411 -0.38523,-9.19596 2.11084,-9.92397 0,0 36.76214,0.92982 36.76214,0.92982 2.52176,-0.63333 5.73811,3.61374 6.92964,8.89821 1.19152,5.28446 0.13091,10.57587 -2.42054,11.07611 0,0 -36.65837,-3.02894 -36.65837,-3.02894 -2.53634,0.57189 -5.40415,-2.69711 -6.72371,-7.95123 0,0 0,0 0,0"
         style="fill:#efebc0;fill-opacity:1;fill-rule:evenodd;stroke:#ded6a3;stroke-width:2;stroke-miterlimit:4;stroke-opacity:1;stroke-dasharray:none;marker:none;visibility:visible;display:inline;overflow:visible"
         inkscape:connector-curvature="0" />
      <path
         id="path5248"
         d="m 431.80523,471.31262 c -1.75091,-5.12645 -1.11736,-8.76572 1.293,-9.74049 0,0 36.6992,-2.44775 36.6992,-2.44775 2.46049,-0.84037 6.20498,3.5593 7.7218,8.75987 1.51682,5.20055 0.7972,10.74546 -1.72456,11.3788 0,0 -36.78123,-0.92465 -36.78123,-0.92465 -2.49606,0.72801 -5.45729,-1.89933 -7.20821,-7.02578 0,0 0,0 0,0"
         style="fill:#efebc0;fill-opacity:1;fill-rule:evenodd;stroke:#ded6a3;stroke-width:2;stroke-miterlimit:4;stroke-opacity:1;stroke-dasharray:none;marker:none;visibility:visible;display:inline;overflow:visible"
         inkscape:connector-curvature="0" />
      <path
         id="path5246"
         d="m 425.37183,456.20469 c -2.56156,-4.77302 -1.76759,-6.97298 0.33273,-8.50554 0,0 35.16838,-9.70089 35.16838,-9.70089 2.29085,-1.22944 7.25951,3.80111 9.29046,8.82312 2.03095,5.022 1.92511,10.96663 -0.53538,11.807 0,0 -36.51031,2.98186 -36.51031,2.98186 -2.3777,1.05188 -5.18433,-0.63253 -7.74588,-5.40555 0,0 0,0 0,0"
         style="fill:#efebc0;fill-opacity:1;fill-rule:evenodd;stroke:#ded6a3;stroke-width:2;stroke-miterlimit:4;stroke-opacity:1;stroke-dasharray:none;marker:none;visibility:visible;display:inline;overflow:visible"
         inkscape:connector-curvature="0" />
      <path
         id="path5242"
         d="m 419.20782,445.29205 c -5.30238,1.10279 0.004,-2.18809 -1.692,-4.15866 0,0 -4.26481,-35.22625 -4.26481,-35.22625 -0.31859,-2.57977 15.04273,-3.96057 20.06854,-1.94038 5.02579,2.02018 13.39166,10.75458 11.66017,12.69404 0,0 -26.29569,24.41551 -26.29569,24.41551 -0.8302,2.46363 5.82616,3.11295 0.52379,4.21574 0,0 0,0 0,0"
         style="fill:#efebc0;fill-opacity:1;fill-rule:evenodd;stroke:#ded6a3;stroke-width:2;stroke-miterlimit:4;stroke-opacity:1;stroke-dasharray:none;marker:none;visibility:visible;display:inline;overflow:visible"
         inkscape:connector-curvature="0" />
      <path
         id="path5212"
         d="m 463.60841,679.75915 c 4.27964,3.3212 5.18481,6.2949 3.78135,8.48358 0,0 -29.21246,22.25056 -29.21246,22.25056 -1.65208,2.00768 -7.76003,-0.30095 -11.64897,-4.07218 -3.88893,-3.77122 -6.32237,-9.68696 -4.37739,-11.41244 0,0 32.68397,-16.70675 32.68397,-16.70675 1.81004,-1.86654 4.49387,-1.86397 8.7735,1.45723 0,0 0,0 0,0"
         style="fill:#efebc0;fill-opacity:1;fill-rule:evenodd;stroke:#ded6a3;stroke-width:2;stroke-miterlimit:4;stroke-opacity:1;stroke-dasharray:none;marker:none;visibility:visible;display:inline;overflow:visible"
         inkscape:connector-curvature="0" />
      <path
         id="path5210"
         d="m 476.38927,687.97884 c 4.89622,2.31775 6.22942,4.91002 5.35906,7.36 0,0 -23.61055,28.10552 -23.61055,28.10552 -1.1889,2.31225 -7.90761,1.18385 -12.46774,-1.74028 -4.56012,-2.92412 -8.28794,-8.51133 -6.6939,-10.56538 0,0 28.85482,-22.61305 28.85482,-22.61305 1.40347,-2.18868 3.66208,-2.86456 8.55831,-0.54681 0,0 0,0 0,0"
         style="fill:#efebc0;fill-opacity:1;fill-rule:evenodd;stroke:#ded6a3;stroke-width:2;stroke-miterlimit:4;stroke-opacity:1;stroke-dasharray:none;marker:none;visibility:visible;display:inline;overflow:visible"
         inkscape:connector-curvature="0" />
      <path
         id="path5208"
         d="m 491.00593,693.13872 c 5.2639,1.27913 6.41448,3.17046 6.15214,5.75717 0,0 -16.29605,32.83021 -16.29605,32.83021 -0.61393,2.52646 -7.57178,2.94196 -12.67632,1.12855 -5.10453,-1.81341 -10.7707,-6.85838 -9.58181,-9.17063 0,0 23.63831,-28.16973 23.63831,-28.16973 0.87037,-2.44998 3.49983,-3.65469 8.76373,-2.37557 0,0 0,0 0,0"
         style="fill:#efebc0;fill-opacity:1;fill-rule:evenodd;stroke:#ded6a3;stroke-width:2;stroke-miterlimit:4;stroke-opacity:1;stroke-dasharray:none;marker:none;visibility:visible;display:inline;overflow:visible"
         inkscape:connector-curvature="0" />
      <path
         id="path5206"
         d="m 505.57235,694.65588 c 5.417,-0.0222 7.46345,1.57453 7.76936,4.15642 0,0 -8.35133,35.73747 -8.35133,35.73747 0.0107,2.59994 -6.6881,4.55829 -12.07755,4.01172 -5.38942,-0.54657 -12.15545,-4.18517 -11.54152,-6.71163 0,0 16.3082,-32.90109 16.3082,-32.90109 0.26234,-2.58671 2.47585,-4.27069 7.89284,-4.29289 0,0 0,0 0,0"
         style="fill:#efebc0;fill-opacity:1;fill-rule:evenodd;stroke:#ded6a3;stroke-width:2;stroke-miterlimit:4;stroke-opacity:1;stroke-dasharray:none;marker:none;visibility:visible;display:inline;overflow:visible"
         inkscape:connector-curvature="0" />
      <path
         id="path5204"
         d="m 519.42269,692.75123 c 5.21244,-1.47456 6.76984,-0.19089 7.86247,2.16832 0,0 2.27882,36.41907 2.27882,36.41907 0.70772,2.50176 -6.36916,6.4762 -11.74854,7.11357 -5.37937,0.63737 -12.29029,-1.30463 -12.30095,-3.90457 0,0 7.66697,-35.70836 7.66697,-35.70836 -0.40636,-2.56799 1.0288,-4.61348 6.24123,-6.08803 0,0 0,0 0,0"
         style="fill:#efebc0;fill-opacity:1;fill-rule:evenodd;stroke:#ded6a3;stroke-width:2;stroke-miterlimit:4;stroke-opacity:1;stroke-dasharray:none;marker:none;visibility:visible;display:inline;overflow:visible"
         inkscape:connector-curvature="0" />
      <path
         id="path5202"
         d="m 532.1427,687.01069 c 4.62344,-2.82279 6.6537,-2.28578 8.31005,-0.28167 0,0 11.84072,34.71719 11.84072,34.71719 1.35482,2.21907 -3.52947,7.48715 -8.4449,9.76366 -4.91541,2.27651 -13.07255,2.48784 -13.78028,-0.0139 0,0 -2.30755,-36.49666 -2.30755,-36.49666 -1.09263,-2.35921 -0.24148,-4.86581 4.38196,-7.6886 0,0 0,0 0,0"
         style="fill:#efebc0;fill-opacity:1;fill-rule:evenodd;stroke:#ded6a3;stroke-width:2;stroke-miterlimit:4;stroke-opacity:1;stroke-dasharray:none;marker:none;visibility:visible;display:inline;overflow:visible"
         inkscape:connector-curvature="0" />
      <path
         id="path5200"
         d="m 542.90884,678.04156 c 3.70033,-3.9564 6.76808,-4.6646 8.81256,-3.05828 0,0 19.43575,31.23623 19.43575,31.23623 1.84368,1.83327 -1.28624,7.94854 -5.46182,11.39954 -4.17556,3.45099 -11.59971,5.77312 -12.95454,3.55405 0,0 -11.88405,-34.77797 -11.88405,-34.77797 -1.65634,-2.00411 -1.64822,-4.39718 2.0521,-8.35357 0,0 0,0 0,0"
         style="fill:#efebc0;fill-opacity:1;fill-rule:evenodd;stroke:#ded6a3;stroke-width:2;stroke-miterlimit:4;stroke-opacity:1;stroke-dasharray:none;marker:none;visibility:visible;display:inline;overflow:visible"
         inkscape:connector-curvature="0" />
      <path
         id="path5172"
         d="m 561.6599,440.40199 c -3.48868,-4.14392 -0.45406,-3.27962 0.85504,-5.52549 0,0 30.59508,-19.00713 30.59508,-19.00713 2.05781,-1.58905 8.63371,3.93104 11.12279,8.742 2.48906,4.81094 3.00874,11.53832 0.59892,12.51422 0,0 -36.36945,5.15327 -36.36945,5.15327 -2.30906,1.19466 -3.3137,2.26704 -6.80238,-1.87687 0,0 0,0 0,0"
         style="fill:#efebc0;fill-opacity:1;fill-rule:evenodd;stroke:#ded6a3;stroke-width:2;stroke-miterlimit:4;stroke-opacity:1;stroke-dasharray:none;marker:none;visibility:visible;display:inline;overflow:visible"
         inkscape:connector-curvature="0" />
      <path
         id="path5170"
         d="m 568.17975,439.56015 c -5.16283,1.63827 1.94363,-3.33245 -0.1499,-4.87388 0,0 -10.16323,-33.63872 -10.16323,-33.63872 -0.63364,-2.52129 20.24575,-3.24535 24.92503,-0.51783 4.67926,2.72751 11.5156,12.67649 9.52668,14.35092 0,0 -29.11313,20.37828 -29.11313,20.37828 -1.13799,2.33713 10.13739,2.66297 4.97455,4.30123 0,0 0,0 0,0"
         style="fill:#efebc0;fill-opacity:1;fill-rule:evenodd;stroke:#ded6a3;stroke-width:2;stroke-miterlimit:4;stroke-opacity:1;stroke-dasharray:none;marker:none;visibility:visible;display:inline;overflow:visible"
         inkscape:connector-curvature="0" />
      <path
         id="path5168"
         d="m 568.93671,442.41793 c -2.25732,4.92442 -4.69758,6.16154 -7.16504,5.34215 0,0 -28.7878,-22.64283 -28.7878,-22.64283 -2.36352,-1.08343 0.39945,-11.11067 3.85922,-15.27819 3.45976,-4.16751 18.69716,-10.84302 19.48346,-8.36507 0,0 11.39257,33.63431 11.39257,33.63431 2.09354,1.54142 3.47492,2.38521 1.21759,7.30963 0,0 0,0 0,0"
         style="fill:#efebc0;fill-opacity:1;fill-rule:evenodd;stroke:#ded6a3;stroke-width:2;stroke-miterlimit:4;stroke-opacity:1;stroke-dasharray:none;marker:none;visibility:visible;display:inline;overflow:visible"
         inkscape:connector-curvature="0" />
      <path
         id="path5166"
         d="m 563.60289,457.68364 c -1.36751,5.24173 -4.27317,8.45604 -6.80496,7.86418 0,0 -31.45147,-19.15956 -31.45147,-19.15956 -2.49502,-0.73135 -3.0703,-6.2692 -1.3631,-11.41016 1.7072,-5.14094 6.41858,-10.46783 8.78211,-9.38441 0,0 28.84103,22.66379 28.84103,22.66379 2.46745,0.81939 3.3639,4.18443 1.99639,9.42616 0,0 0,0 0,0"
         style="fill:#efebc0;fill-opacity:1;fill-rule:evenodd;stroke:#ded6a3;stroke-width:2;stroke-miterlimit:4;stroke-opacity:1;stroke-dasharray:none;marker:none;visibility:visible;display:inline;overflow:visible"
         inkscape:connector-curvature="0" />
      <path
         id="path5164"
         d="m 559.39639,475.78938 c -1.01466,5.32141 -3.76852,8.88918 -6.33043,8.44528 0,0 -32.71683,-16.6496 -32.71683,-16.6496 -2.55406,-0.487 -3.57914,-6.05866 -2.346,-11.33367 1.23313,-5.27498 4.53967,-9.50872 7.05549,-8.85236 0,0 31.62,18.65916 31.62,18.65916 2.53179,0.59186 3.73244,4.40979 2.71777,9.73119 0,0 0,0 0,0"
         style="fill:#efebc0;fill-opacity:1;fill-rule:evenodd;stroke:#ded6a3;stroke-width:2;stroke-miterlimit:4;stroke-opacity:1;stroke-dasharray:none;marker:none;visibility:visible;display:inline;overflow:visible"
         inkscape:connector-curvature="0" />
      <path
         id="path5162"
         d="m 556.14382,494.73275 c -0.80912,5.35643 -3.4563,8.88041 -6.03572,8.55342 0,0 -33.29772,-15.24892 -33.29772,-15.24892 -2.57086,-0.38835 -3.93882,-5.49385 -3.01393,-10.83161 0.92488,-5.33773 3.90045,-9.59272 6.45451,-9.10573 0,0 32.72551,16.65118 32.72551,16.65118 2.56191,0.44391 3.97646,4.62524 3.16735,9.98166 0,0 0,0 0,0"
         style="fill:#efebc0;fill-opacity:1;fill-rule:evenodd;stroke:#ded6a3;stroke-width:2;stroke-miterlimit:4;stroke-opacity:1;stroke-dasharray:none;marker:none;visibility:visible;display:inline;overflow:visible"
         inkscape:connector-curvature="0" />
      <path
         id="path5160"
         d="m 553.46841,514.09715 c -0.6813,5.37423 -3.19223,9.05606 -5.77753,8.77919 0,0 -33.70464,-14.53589 -33.70464,-14.53589 -2.57942,-0.32699 -4.10751,-4.91677 -3.42622,-10.29101 0.6813,-5.37421 3.60121,-9.88229 6.17208,-9.49395 0,0 33.31009,15.25065 33.31009,15.25065 2.57941,0.32699 4.10751,4.91677 3.42622,10.29101 0,0 0,0 0,0"
         style="fill:#efebc0;fill-opacity:1;fill-rule:evenodd;stroke:#ded6a3;stroke-width:2;stroke-miterlimit:4;stroke-opacity:1;stroke-dasharray:none;marker:none;visibility:visible;display:inline;overflow:visible"
         inkscape:connector-curvature="0" />
      <path
         id="path5158"
         d="m 551.26045,533.62012 c -0.57685,5.38648 -2.99602,9.18545 -5.58545,8.95028 0,0 -34.00128,-13.93947 -34.00128,-13.93947 -2.5853,-0.27687 -4.20221,-4.83614 -3.62536,-10.22262 0.57684,-5.38646 3.29254,-9.87489 5.87196,-9.54789 0,0 33.71475,14.53708 33.71475,14.53708 2.5853,0.27686 4.20222,4.83614 3.62538,10.22262 0,0 0,0 0,0"
         style="fill:#efebc0;fill-opacity:1;fill-rule:evenodd;stroke:#ded6a3;stroke-width:2;stroke-miterlimit:4;stroke-opacity:1;stroke-dasharray:none;marker:none;visibility:visible;display:inline;overflow:visible"
         inkscape:connector-curvature="0" />
      <path
         id="path5156"
         d="m 549.41722,553.2553 c -0.48998,5.3951 -2.84491,9.28423 -5.4373,9.08425 0,0 -34.22483,-13.43497 -34.22483,-13.43497 -2.58943,-0.23517 -4.2796,-4.76782 -3.78962,-10.16292 0.48998,-5.39507 3.06714,-9.86644 5.65244,-9.58958 0,0 34.00968,13.9403 34.00968,13.9403 2.58943,0.23517 4.27961,4.76783 3.78963,10.16292 0,0 0,0 0,0"
         style="fill:#efebc0;fill-opacity:1;fill-rule:evenodd;stroke:#ded6a3;stroke-width:2;stroke-miterlimit:4;stroke-opacity:1;stroke-dasharray:none;marker:none;visibility:visible;display:inline;overflow:visible"
         inkscape:connector-curvature="0" />
      <path
         id="path5154"
         d="m 547.86693,572.97267 c -0.41667,5.40127 -2.72451,9.36185 -5.31905,9.19195 0,0 -34.39862,-13.00361 -34.39862,-13.00361 -2.59239,-0.19998 -4.34397,-4.70927 -3.9273,-10.11054 0.41666,-5.40125 2.89629,-9.85907 5.48572,-9.6239 0,0 34.23193,13.43556 34.23193,13.43556 2.59239,0.19998 4.34398,4.70927 3.92732,10.11054 0,0 0,0 0,0"
         style="fill:#efebc0;fill-opacity:1;fill-rule:evenodd;stroke:#ded6a3;stroke-width:2;stroke-miterlimit:4;stroke-opacity:1;stroke-dasharray:none;marker:none;visibility:visible;display:inline;overflow:visible"
         inkscape:connector-curvature="0" />
      <path
         id="path5152"
         d="m 546.55796,592.75196 c -0.35398,5.40574 -2.62544,9.4243 -5.22155,9.28041 0,0 -34.53772,-12.63113 -34.53772,-12.63113 -2.59454,-0.1699 -4.39831,-4.65857 -4.04432,-10.06432 0.35398,-5.40573 2.76219,-9.85331 5.35458,-9.65333 0,0 34.40468,13.00404 34.40468,13.00404 2.59454,0.1699 4.39832,4.65858 4.04433,10.06433 0,0 0,0 0,0"
         style="fill:#efebc0;fill-opacity:1;fill-rule:evenodd;stroke:#ded6a3;stroke-width:2;stroke-miterlimit:4;stroke-opacity:1;stroke-dasharray:none;marker:none;visibility:visible;display:inline;overflow:visible"
         inkscape:connector-curvature="0" />
      <path
         id="path5150"
         d="m 545.45237,612.57901 c -0.29981,5.40903 -2.54147,9.47555 -5.13874,9.35435 0,0 -34.65216,-12.30656 -34.65216,-12.30656 -2.59611,-0.14389 -4.44476,-4.61428 -4.14495,-10.02331 0.29981,-5.40901 2.65338,-9.84913 5.24792,-9.67923 0,0 34.54296,12.63144 34.54296,12.63144 2.59612,0.1439 4.44478,4.61428 4.14497,10.02331 0,0 0,0 0,0"
         style="fill:#efebc0;fill-opacity:1;fill-rule:evenodd;stroke:#ded6a3;stroke-width:2;stroke-miterlimit:4;stroke-opacity:1;stroke-dasharray:none;marker:none;visibility:visible;display:inline;overflow:visible"
         inkscape:connector-curvature="0" />
      <path
         id="path5148"
         d="m 544.5216,632.44364 c -0.25252,5.41144 -2.43415,9.45087 -5.0326,9.35846 0,0 -34.7826,-11.96282 -34.7826,-11.96282 -2.59728,-0.12121 -4.48493,-4.57527 -4.2324,-9.98672 0.25253,-5.41142 2.56235,-9.84632 5.15847,-9.70242 0,0 34.65673,12.30678 34.65673,12.30678 2.59727,0.12121 4.48493,4.57527 4.2324,9.98672 0,0 0,0 0,0"
         style="fill:#efebc0;fill-opacity:1;fill-rule:evenodd;stroke:#ded6a3;stroke-width:2;stroke-miterlimit:4;stroke-opacity:1;stroke-dasharray:none;marker:none;visibility:visible;display:inline;overflow:visible"
         inkscape:connector-curvature="0" />
      <path
         id="path5244"
         d="m 418.24823,446.27048 c -4.04088,-3.60759 0.10222,-2.56318 0.93243,-5.02681 0,0 26.19002,-24.23382 26.19002,-24.23382 1.7315,-1.93947 9.49644,2.97807 12.68954,7.35411 3.19309,4.37601 4.85574,11.94306 2.56488,13.1725 0,0 -35.22948,9.7393 -35.22948,9.7393 -2.10032,1.53256 -3.1065,2.60231 -7.14739,-1.00528 0,0 0,0 0,0"
         style="fill:#efebc0;fill-opacity:1;fill-rule:evenodd;stroke:#ded6a3;stroke-width:2;stroke-miterlimit:4;stroke-opacity:1;stroke-dasharray:none;marker:none;visibility:visible;display:inline;overflow:visible"
         inkscape:connector-curvature="0" />
    </g>
  </g>
  <g
     transform="translate(-44.028483,-48.542444)"
     style="display:inline"
     inkscape:label="Légende."
     id="layer3"
     inkscape:groupmode="layer" />
</svg>
